<?xml version="1.0" encoding="UTF-8" standalone="no"?>
<!DOCTYPE svg PUBLIC "-//W3C//DTD SVG 1.1//EN"
 "http://www.w3.org/Graphics/SVG/1.1/DTD/svg11.dtd">
<!-- Generated by graphviz version 2.43.0 (0)
 -->
<!-- Title: cond_panel_d Pages: 1 -->
<svg width="714pt" height="87pt"
 viewBox="0.00 0.00 714.00 87.00" xmlns="http://www.w3.org/2000/svg" xmlns:xlink="http://www.w3.org/1999/xlink">
<g id="graph0" class="graph" transform="scale(1 1) rotate(0) translate(4 83)">
<title>cond_panel_d</title>
<!-- y0 -->
<g id="node1" class="node">
<title>y0</title>
<polygon fill="#f5c518" stroke="#333333" points="54,-52 0,-52 0,-16 54,-16 54,-52"/>
<text text-anchor="middle" x="27" y="-31.5" font-family="Helvetica,sans-Serif" font-size="10.00">[CPU]</text>
</g>
<!-- y1 -->
<g id="node2" class="node">
<title>y1</title>
<polygon fill="#f5c518" stroke="#333333" points="131,-52 77,-52 77,-16 131,-16 131,-52"/>
<text text-anchor="middle" x="104" y="-31.5" font-family="Helvetica,sans-Serif" font-size="10.00">[CE]</text>
</g>
<!-- y0&#45;&gt;y1 -->
<g id="edge1" class="edge">
<title>y0&#45;&gt;y1</title>
<path fill="none" stroke="#333333" d="M54.23,-34C59.28,-34 64.64,-34 69.88,-34"/>
<polygon fill="#333333" stroke="#333333" points="69.91,-36.45 76.91,-34 69.91,-31.55 69.91,-36.45"/>
</g>
<!-- y2 -->
<g id="node3" class="node">
<title>y2</title>
<polygon fill="#f5c518" stroke="#333333" points="208,-52 154,-52 154,-16 208,-16 208,-52"/>
<text text-anchor="middle" x="181" y="-31.5" font-family="Helvetica,sans-Serif" font-size="10.00">[SM]</text>
</g>
<!-- y1&#45;&gt;y2 -->
<g id="edge2" class="edge">
<title>y1&#45;&gt;y2</title>
<path fill="none" stroke="#333333" d="M131.23,-34C136.28,-34 141.64,-34 146.88,-34"/>
<polygon fill="#333333" stroke="#333333" points="146.91,-36.45 153.91,-34 146.91,-31.55 146.91,-36.45"/>
</g>
<!-- d -->
<g id="node4" class="node">
<title>d</title>
<polygon fill="#ffffff" stroke="#333333" points="239,-41 231,-34 239,-27 247,-34 239,-41"/>
</g>
<!-- y2&#45;&gt;d -->
<g id="edge3" class="edge">
<title>y2&#45;&gt;d</title>
<path fill="none" stroke="#333333" d="M208.03,-34C216.26,-34 224.71,-34 230.53,-34"/>
</g>
<!-- b0 -->
<g id="node8" class="node">
<title>b0</title>
<polygon fill="#4472c4" stroke="#333333" points="345,-79 291,-79 291,-43 345,-43 345,-79"/>
<text text-anchor="middle" x="318" y="-58.5" font-family="Helvetica,sans-Serif" font-size="10.00" fill="white">[SM]</text>
</g>
<!-- d&#45;&gt;b0 -->
<g id="edge4" class="edge">
<title>d&#45;&gt;b0</title>
<path fill="none" stroke="#333333" d="M245.05,-35.77C253,-38.56 269.07,-44.19 284.01,-49.43"/>
<polygon fill="#333333" stroke="#333333" points="283.34,-51.79 290.76,-51.8 284.96,-47.17 283.34,-51.79"/>
<text text-anchor="middle" x="269" y="-50" font-family="Helvetica,sans-Serif" font-size="10.00">74%</text>
</g>
<!-- r0 -->
<g id="node10" class="node">
<title>r0</title>
<polygon fill="#c00000" stroke="#333333" points="410,-36 356,-36 356,0 410,0 410,-36"/>
<text text-anchor="middle" x="383" y="-15.5" font-family="Helvetica,sans-Serif" font-size="10.00" fill="white">[CE]</text>
</g>
<!-- d&#45;&gt;r0 -->
<g id="edge7" class="edge">
<title>d&#45;&gt;r0</title>
<path fill="none" stroke="#333333" d="M244.24,-31.26C247.77,-29.13 253,-26.33 258,-25 287.96,-17.03 323.39,-15.8 348.69,-16.26"/>
<polygon fill="#333333" stroke="#333333" points="348.81,-18.72 355.87,-16.44 348.94,-13.82 348.81,-18.72"/>
<text text-anchor="middle" x="269" y="-28" font-family="Helvetica,sans-Serif" font-size="10.00">26%</text>
</g>
<!-- y3 -->
<g id="node5" class="node">
<title>y3</title>
<polygon fill="#f5c518" stroke="#333333" points="552,-47 498,-47 498,-11 552,-11 552,-47"/>
<text text-anchor="middle" x="525" y="-26.5" font-family="Helvetica,sans-Serif" font-size="10.00">[SM]</text>
</g>
<!-- y4 -->
<g id="node6" class="node">
<title>y4</title>
<polygon fill="#f5c518" stroke="#333333" points="629,-47 575,-47 575,-11 629,-11 629,-47"/>
<text text-anchor="middle" x="602" y="-26.5" font-family="Helvetica,sans-Serif" font-size="10.00">[CE]</text>
</g>
<!-- y3&#45;&gt;y4 -->
<g id="edge9" class="edge">
<title>y3&#45;&gt;y4</title>
<path fill="none" stroke="#333333" d="M552.23,-29C557.28,-29 562.64,-29 567.88,-29"/>
<polygon fill="#333333" stroke="#333333" points="567.91,-31.45 574.91,-29 567.91,-26.55 567.91,-31.45"/>
</g>
<!-- y5 -->
<g id="node7" class="node">
<title>y5</title>
<polygon fill="#f5c518" stroke="#333333" points="706,-47 652,-47 652,-11 706,-11 706,-47"/>
<text text-anchor="middle" x="679" y="-26.5" font-family="Helvetica,sans-Serif" font-size="10.00">[CPU]</text>
</g>
<!-- y4&#45;&gt;y5 -->
<g id="edge10" class="edge">
<title>y4&#45;&gt;y5</title>
<path fill="none" stroke="#333333" d="M629.23,-29C634.28,-29 639.64,-29 644.88,-29"/>
<polygon fill="#333333" stroke="#333333" points="644.91,-31.45 651.91,-29 644.91,-26.55 644.91,-31.45"/>
</g>
<!-- b1 -->
<g id="node9" class="node">
<title>b1</title>
<polygon fill="#4472c4" stroke="#333333" points="475,-79 421,-79 421,-43 475,-43 475,-79"/>
<text text-anchor="middle" x="448" y="-58.5" font-family="Helvetica,sans-Serif" font-size="10.00" fill="white">[SM]</text>
</g>
<!-- b0&#45;&gt;b1 -->
<g id="edge5" class="edge">
<title>b0&#45;&gt;b1</title>
<path fill="none" stroke="#333333" d="M345.21,-61C364.97,-61 392.22,-61 413.55,-61"/>
<polygon fill="#333333" stroke="#333333" points="413.82,-63.45 420.82,-61 413.82,-58.55 413.82,-63.45"/>
</g>
<!-- b1&#45;&gt;y3 -->
<g id="edge6" class="edge">
<title>b1&#45;&gt;y3</title>
<path fill="none" stroke="#333333" d="M475.23,-49.81C480.4,-47.6 485.88,-45.26 491.23,-42.98"/>
<polygon fill="#333333" stroke="#333333" points="492.43,-45.13 497.91,-40.13 490.51,-40.63 492.43,-45.13"/>
</g>
<!-- r0&#45;&gt;y3 -->
<g id="edge8" class="edge">
<title>r0&#45;&gt;y3</title>
<path fill="none" stroke="#333333" d="M410,-20.04C432.75,-21.83 465.91,-24.44 490.61,-26.38"/>
<polygon fill="#333333" stroke="#333333" points="490.49,-28.82 497.66,-26.93 490.87,-23.94 490.49,-28.82"/>
</g>
</g>
</svg>
