<?xml version="1.0" encoding="UTF-8" standalone="no"?>
<!DOCTYPE svg PUBLIC "-//W3C//DTD SVG 1.1//EN"
 "http://www.w3.org/Graphics/SVG/1.1/DTD/svg11.dtd">
<!-- Generated by graphviz version 2.43.0 (0)
 -->
<!-- Title: cond Pages: 1 -->
<svg width="1291pt" height="202pt"
 viewBox="0.00 0.00 1290.56 202.00" xmlns="http://www.w3.org/2000/svg" xmlns:xlink="http://www.w3.org/1999/xlink">
<g id="graph0" class="graph" transform="scale(1 1) rotate(0) translate(4 198)">
<title>cond</title>
<polygon fill="white" stroke="transparent" points="-4,4 -4,-198 1286.56,-198 1286.56,4 -4,4"/>
<g id="clust1" class="cluster">
<title>cluster_bb</title>
<path fill="#eef4fb" stroke="#1a5490" d="M20,-31C20,-31 539.99,-31 539.99,-31 545.99,-31 551.99,-37 551.99,-43 551.99,-43 551.99,-140 551.99,-140 551.99,-146 545.99,-152 539.99,-152 539.99,-152 20,-152 20,-152 14,-152 8,-146 8,-140 8,-140 8,-43 8,-43 8,-37 14,-31 20,-31"/>
<text text-anchor="middle" x="279.99" y="-140" font-family="Helvetica,sans-Serif" font-weight="bold" font-size="10.00">backbone — present in every invocation</text>
</g>
<!-- b0 -->
<g id="node1" class="node">
<title>b0</title>
<path fill="#dfe9f5" stroke="black" d="M99,-95C99,-95 28,-95 28,-95 22,-95 16,-89 16,-83 16,-83 16,-71 16,-71 16,-65 22,-59 28,-59 28,-59 99,-59 99,-59 105,-59 111,-65 111,-71 111,-71 111,-83 111,-83 111,-89 105,-95 99,-95"/>
<text text-anchor="middle" x="63.5" y="-80" font-family="Helvetica,sans-Serif" font-size="10.00">CPU</text>
<text text-anchor="middle" x="63.5" y="-69" font-family="Helvetica,sans-Serif" font-size="10.00">cudaMallocAsync</text>
</g>
<!-- b1 -->
<g id="node2" class="node">
<title>b1</title>
<path fill="#dfe9f5" stroke="black" d="M266,-95C266,-95 191,-95 191,-95 185,-95 179,-89 179,-83 179,-83 179,-71 179,-71 179,-65 185,-59 191,-59 191,-59 266,-59 266,-59 272,-59 278,-65 278,-71 278,-71 278,-83 278,-83 278,-89 272,-95 266,-95"/>
<text text-anchor="middle" x="228.5" y="-80" font-family="Helvetica,sans-Serif" font-size="10.00">CPU</text>
<text text-anchor="middle" x="228.5" y="-69" font-family="Helvetica,sans-Serif" font-size="10.00">cudaLaunchKernel</text>
</g>
<!-- b0&#45;&gt;b1 -->
<g id="edge1" class="edge">
<title>b0&#45;&gt;b1</title>
<path fill="none" stroke="#1a5490" d="M111.21,-77C130.06,-77 151.97,-77 171.66,-77"/>
<polygon fill="#1a5490" stroke="#1a5490" points="171.8,-79.45 178.8,-77 171.8,-74.55 171.8,-79.45"/>
<text text-anchor="middle" x="145" y="-79.8" font-family="Helvetica,sans-Serif" font-size="9.00">cpu_order</text>
</g>
<!-- b2 -->
<g id="node3" class="node">
<title>b2</title>
<ellipse fill="#a9dfbf" stroke="black" cx="444.99" cy="-59" rx="98.99" ry="19.6"/>
<text text-anchor="middle" x="444.99" y="-62" font-family="Helvetica,sans-Serif" font-size="10.00">SM</text>
<text text-anchor="middle" x="444.99" y="-51" font-family="Helvetica,sans-Serif" font-size="10.00">normalizeInvStdDevKernel</text>
</g>
<!-- b1&#45;&gt;b2 -->
<g id="edge2" class="edge">
<title>b1&#45;&gt;b2</title>
<path fill="none" stroke="#1a5490" d="M278.17,-72.92C298.42,-71.22 322.69,-69.18 346.33,-67.2"/>
<polygon fill="#1a5490" stroke="#1a5490" points="346.54,-69.64 353.31,-66.61 346.13,-64.75 346.54,-69.64"/>
<text text-anchor="middle" x="312" y="-73.8" font-family="Helvetica,sans-Serif" font-size="9.00">launch</text>
</g>
<!-- b3 -->
<g id="node4" class="node">
<title>b3</title>
<path fill="#dfe9f5" stroke="black" d="M496.99,-125C496.99,-125 392.99,-125 392.99,-125 386.99,-125 380.99,-119 380.99,-113 380.99,-113 380.99,-101 380.99,-101 380.99,-95 386.99,-89 392.99,-89 392.99,-89 496.99,-89 496.99,-89 502.99,-89 508.99,-95 508.99,-101 508.99,-101 508.99,-113 508.99,-113 508.99,-119 502.99,-125 496.99,-125"/>
<text text-anchor="middle" x="444.99" y="-110" font-family="Helvetica,sans-Serif" font-size="10.00">CPU</text>
<text text-anchor="middle" x="444.99" y="-99" font-family="Helvetica,sans-Serif" font-size="10.00">cudaStreamSynchronize</text>
</g>
<!-- b1&#45;&gt;b3 -->
<g id="edge3" class="edge">
<title>b1&#45;&gt;b3</title>
<path fill="none" stroke="#1a5490" d="M278.17,-83.81C306.44,-87.76 342.54,-92.81 373.84,-97.19"/>
<polygon fill="#1a5490" stroke="#1a5490" points="373.58,-99.62 380.85,-98.17 374.26,-94.77 373.58,-99.62"/>
<text text-anchor="middle" x="312" y="-93.8" font-family="Helvetica,sans-Serif" font-size="9.00">cpu_order</text>
</g>
<!-- v1 -->
<g id="node5" class="node">
<title>v1</title>
<path fill="#ffe0b2" stroke="#e08a1e" d="M787.77,-194C787.77,-194 756.77,-194 756.77,-194 750.77,-194 744.77,-188 744.77,-182 744.77,-182 744.77,-170 744.77,-170 744.77,-164 750.77,-158 756.77,-158 756.77,-158 787.77,-158 787.77,-158 793.77,-158 799.77,-164 799.77,-170 799.77,-170 799.77,-182 799.77,-182 799.77,-188 793.77,-194 787.77,-194"/>
<text text-anchor="middle" x="772.27" y="-179" font-family="Helvetica,sans-Serif" font-size="10.00">CPU</text>
<text text-anchor="middle" x="772.27" y="-168" font-family="Helvetica,sans-Serif" font-size="10.00">cudaFree</text>
</g>
<!-- b3&#45;&gt;v1 -->
<g id="edge4" class="edge">
<title>b3&#45;&gt;v1</title>
<path fill="none" stroke="#e08a1e" stroke-dasharray="5,2" d="M496.8,-125.03C525.34,-134.57 561.79,-145.76 594.99,-153 643.98,-163.68 701.78,-170.06 737.48,-173.31"/>
<polygon fill="#e08a1e" stroke="#e08a1e" points="737.56,-175.77 744.75,-173.95 738,-170.89 737.56,-175.77"/>
<text text-anchor="middle" x="571.99" y="-152.8" font-family="Helvetica,sans-Serif" font-size="9.00">48 %</text>
</g>
<!-- v2 -->
<g id="node6" class="node">
<title>v2</title>
<path fill="white" stroke="transparent" d="M799.77,-148C799.77,-148 744.77,-148 744.77,-148 738.77,-148 732.77,-142 732.77,-136 732.77,-136 732.77,-124 732.77,-124 732.77,-118 738.77,-112 744.77,-112 744.77,-112 799.77,-112 799.77,-112 805.77,-112 811.77,-118 811.77,-124 811.77,-124 811.77,-136 811.77,-136 811.77,-142 805.77,-148 799.77,-148"/>
<text text-anchor="middle" x="772.27" y="-127.5" font-family="Helvetica,sans-Serif" font-size="10.00">(no extra ops)</text>
</g>
<!-- b3&#45;&gt;v2 -->
<g id="edge5" class="edge">
<title>b3&#45;&gt;v2</title>
<path fill="none" stroke="#bbbbbb" stroke-dasharray="5,2" d="M509.1,-111.46C572.53,-115.95 668.77,-122.75 725.31,-126.75"/>
<polygon fill="#bbbbbb" stroke="#bbbbbb" points="725.18,-129.2 732.34,-127.25 725.53,-124.31 725.18,-129.2"/>
<text text-anchor="middle" x="571.99" y="-118.8" font-family="Helvetica,sans-Serif" font-size="9.00">40 %</text>
</g>
<!-- v3 -->
<g id="node7" class="node">
<title>v3</title>
<path fill="#ffe0b2" stroke="#e08a1e" d="M819.27,-102C819.27,-102 725.27,-102 725.27,-102 719.27,-102 713.27,-96 713.27,-90 713.27,-90 713.27,-78 713.27,-78 713.27,-72 719.27,-66 725.27,-66 725.27,-66 819.27,-66 819.27,-66 825.27,-66 831.27,-72 831.27,-78 831.27,-78 831.27,-90 831.27,-90 831.27,-96 825.27,-102 819.27,-102"/>
<text text-anchor="middle" x="772.27" y="-87" font-family="Helvetica,sans-Serif" font-size="10.00">CPU cudaFree</text>
<text text-anchor="middle" x="772.27" y="-76" font-family="Helvetica,sans-Serif" font-size="10.00">(no cudaMallocAsync)</text>
</g>
<!-- b3&#45;&gt;v3 -->
<g id="edge6" class="edge">
<title>b3&#45;&gt;v3</title>
<path fill="none" stroke="#e08a1e" stroke-dasharray="5,2" d="M509.1,-102.54C565.79,-98.53 648.71,-92.67 706.05,-88.61"/>
<polygon fill="#e08a1e" stroke="#e08a1e" points="706.45,-91.04 713.26,-88.1 706.11,-86.15 706.45,-91.04"/>
<text text-anchor="middle" x="571.99" y="-100.8" font-family="Helvetica,sans-Serif" font-size="9.00">9 %</text>
</g>
<!-- v4 -->
<g id="node8" class="node">
<title>v4</title>
<path fill="#f9d5a7" stroke="#e08a1e" d="M937.34,-56C937.34,-56 679.67,-56 679.67,-56 673.67,-56 662.92,-52.33 658.17,-48.66 658.17,-48.66 604.7,-7.34 604.7,-7.34 599.95,-3.67 601.2,0 607.2,0 607.2,0 864.88,0 864.88,0 870.88,0 881.63,-3.67 886.38,-7.34 886.38,-7.34 939.85,-48.66 939.85,-48.66 944.6,-52.33 943.34,-56 937.34,-56"/>
<text text-anchor="middle" x="772.27" y="-31" font-family="Helvetica,sans-Serif" font-size="10.00">CPU cudaMemcpy →</text>
<text text-anchor="middle" x="772.27" y="-20" font-family="Helvetica,sans-Serif" font-size="10.00">CE memcpy_D2H → 2× cudaFree</text>
</g>
<!-- b3&#45;&gt;v4 -->
<g id="edge7" class="edge">
<title>b3&#45;&gt;v4</title>
<path fill="none" stroke="#e08a1e" stroke-dasharray="5,2" d="M509.03,-96.33C523.37,-93.08 538.38,-89 551.99,-84 572.33,-76.52 574.54,-68.19 594.99,-61 611.2,-55.3 628.61,-50.53 645.95,-46.54"/>
<polygon fill="#e08a1e" stroke="#e08a1e" points="646.55,-48.92 652.85,-45 645.48,-44.14 646.55,-48.92"/>
<text text-anchor="middle" x="571.99" y="-82.8" font-family="Helvetica,sans-Serif" font-size="9.00">2 %</text>
</g>
<!-- cap -->
<g id="node9" class="node">
<title>cap</title>
<path fill="lightgrey" stroke="transparent" d="M1270.56,-46C1270.56,-46 972.56,-46 972.56,-46 966.56,-46 960.56,-40 960.56,-34 960.56,-34 960.56,-22 960.56,-22 960.56,-16 966.56,-10 972.56,-10 972.56,-10 1270.56,-10 1270.56,-10 1276.56,-10 1282.56,-16 1282.56,-22 1282.56,-22 1282.56,-34 1282.56,-34 1282.56,-40 1276.56,-46 1270.56,-46"/>
<text text-anchor="middle" x="1121.56" y="-25.5" font-family="Helvetica,sans-Serif" font-size="10.00">NormalizeNode · sub:/r2b/tensor · 29 335 invocations · 9 shapes</text>
</g>
</g>
</svg>
